<svg width="32" height="32" viewBox="0 0 32 32" fill="none" xmlns="http://www.w3.org/2000/svg">
<rect width="32" height="32" rx="5" fill="#E2E2E2"/>
<path d="M26.8797 3.41333C27.94 3.41333 28.7996 4.2729 28.7996 5.33325C28.7996 6.39364 27.9401 7.25317 26.8797 7.25317H7.03984V16.0002C7.03971 17.0605 6.18022 17.9202 5.11992 17.9202C4.05965 17.9201 3.20013 17.0605 3.2 16.0002V7.25317C3.20008 5.13252 4.91919 3.41342 7.03984 3.41333H26.8797Z" fill="#843F3F"/>
<path d="M17.9203 13.0805C17.9203 13.6328 18.368 14.0805 18.9203 14.0805H21.3998C21.9521 14.0805 22.3998 14.5282 22.3998 15.0805V16.9203C22.3998 17.4726 21.9521 17.9203 21.3998 17.9203H18.9203C18.368 17.9203 17.9203 18.368 17.9203 18.9203V21.3998C17.9203 21.9521 17.4726 22.3998 16.9203 22.3998H15.0805C14.5282 22.3998 14.0805 21.9521 14.0805 21.3998V18.9203C14.0805 18.368 13.6328 17.9203 13.0805 17.9203H10.6C10.0477 17.9203 9.60001 17.4726 9.60001 16.9203V15.0805C9.60001 14.5282 10.0477 14.0805 10.6 14.0805H13.0805C13.6328 14.0805 14.0805 13.6328 14.0805 13.0805V10.6C14.0805 10.0477 14.5282 9.6 15.0805 9.6H16.9203C17.4726 9.6 17.9203 10.0477 17.9203 10.6V13.0805Z" fill="#843F3F"/>
<path d="M26.8797 14.08C27.94 14.08 28.7996 14.9396 28.7996 15.9999V24.747C28.7994 26.8012 27.1867 28.4789 25.158 28.582L24.9598 28.5868H5.11992C4.05965 28.5868 3.20013 27.7272 3.2 26.6669C3.2 25.6066 4.05957 24.747 5.11992 24.747H24.9598V15.9999C24.9598 14.9397 25.8195 14.0802 26.8797 14.08Z" fill="#843F3F"/>
</svg>
